<svg data-v-0dd9719b="" version="1.0" xmlns="http://www.w3.org/2000/svg" xmlns:xlink="http://www.w3.org/1999/xlink" width="100%" height="100%" viewBox="0 0 340.000000 250.000000" preserveAspectRatio="xMidYMid meet" color-interpolation-filters="sRGB" style="margin: auto;">   <g data-v-0dd9719b="" fill="#7f79f7" class="j-b-g-c iconbgsvg" mask="url(#9adb927c-aa20-43cc-b827-67f04174386b)" transform="translate(82.5,37.5)"><g data-d="container" transform="translate(0,0)"><g><rect fill="#7f79f7" fill-opacity="0" stroke-width="2" x="0" y="0" width="175" height="175" class="image-rect"></rect> <svg filter="url(#colors1293043148)" x="0" y="0" width="175" height="175" filtersec="colorsf7173164964" class="image-svg-container primary" style="overflow: visible;"><svg xmlns="http://www.w3.org/2000/svg" viewBox="0 0 60 60" style="overflow: visible;"><g transform="scale(1, 1) skewX(0)"><title>96 - Rounded (Solid)</title><path d="M49.001 0H10.999C4.934 0 0 4.934 0 10.999v38.002C0 55.066 4.934 60 10.999 60h38.002C55.065 60 60 55.066 60 49.001V10.999C60 4.934 55.065 0 49.001 0" fill="#000" fill-rule="evenodd"></path></g></svg></svg> <defs><filter id="colors1293043148"><feColorMatrix type="matrix" values="0 0 0 0 0.421875  0 0 0 0 0.38671875  0 0 0 0 0.99609375  0 0 0 1 0" class="icon-fecolormatrix"></feColorMatrix></filter> <filter id="colorsf7173164964"><feColorMatrix type="matrix" values="0 0 0 0 0.99609375  0 0 0 0 0.99609375  0 0 0 0 0.99609375  0 0 0 1 0" class="icon-fecolormatrix"></feColorMatrix></filter> <filter id="colorsb4298161386"><feColorMatrix type="matrix" values="0 0 0 0 0  0 0 0 0 0  0 0 0 0 0  0 0 0 1 0" class="icon-fecolormatrix"></feColorMatrix></filter></defs></g></g> <g data-d="icon-text" hollow-target="textRect" transform="translate(39.5,39.56285095214844)"><g data-d="icon" class="iconsvg-imagesvg" transform="translate(0,0)"><g><!----> <svg filter="url(#colors9756519827)" x="0" y="0" width="96.00000000000003" height="95.87440453006566" filtersec="colorsf9761611736" class="image-svg-svg primary" style="overflow: visible;"><svg xmlns="http://www.w3.org/2000/svg" viewBox="1.9213333129882812 2 60.07866668701172 60" x="0px" y="0px"><g><g data-name="Glyph"><path d="M5,2H3A1,1,0,0,0,2,3S1.823,44.124,2,57.83c.07,5.439,7.874,5.522,8,.17.1-4.272,0-17.091,0-17.091a1,1,0,0,1,.8-.981A5.074,5.074,0,0,0,15,35V13C15,6.63,10.79,2,5,2Z"></path><path d="M37.214,10.548A25.337,25.337,0,0,0,32,10a25.666,25.666,0,0,0-14.564,4.487,1.012,1.012,0,0,0-.436.835v6.421a1,1,0,0,0,1.694.71A18.8,18.8,0,0,1,32,17a18.613,18.613,0,0,1,4.758.614A.993.993,0,0,0,38,16.649V11.531A1,1,0,0,0,37.214,10.548Z"></path><path d="M12.659,41.443l-.072.03a.977.977,0,0,0-.587.913v9.456a2,2,0,0,0,.486,1.318,25.889,25.889,0,0,0,32.016,5.6,1,1,0,0,0,.516-.885c-.006-1.2-.011-3.955-.015-5.91a.994.994,0,0,0-1.584-.8A18.76,18.76,0,0,1,32,55,18.957,18.957,0,0,1,14.013,42.014,1,1,0,0,0,12.659,41.443Z"></path><path d="M62,18V5a3,3,0,0,0-6,0v8a1,1,0,0,1-2,0V5a3,3,0,0,0-6,0v8a1,1,0,0,1-2,0V5a3,3,0,0,0-6,0V18a8.013,8.013,0,0,0,7,7.938V58a4,4,0,0,0,8,0V25.938A8.013,8.013,0,0,0,62,18Z"></path><path d="M36.112,48.417A13,13,0,0,0,43.6,30.16a2.108,2.108,0,0,0-3.38-.59,6.156,6.156,0,0,1-3.888,1.685,1,1,0,0,0-.71,1.436,12.665,12.665,0,0,1,.984,3.5.5.5,0,0,0,.768.332.971.971,0,0,1,1.394.133,1,1,0,0,1-.139,1.408c-.59.484-1.111.961-1.593,1.44a.992.992,0,0,0-.283.63A20.9,20.9,0,0,1,34.9,47.062,1,1,0,0,0,36.112,48.417Z"></path><path d="M33.9,33.726C32.313,30,26.862,27.569,22.76,25.35a3.206,3.206,0,0,0-4.5,2.01c-1.157,4.411-1.646,10.049.106,14.1,2.7,5.388,8.516,6.933,11.835,7.411a1.981,1.981,0,0,0,1.984-.94C33.57,45.636,36.614,40.076,33.9,33.726Zm-2.49,11.321a17.787,17.787,0,0,1-.936,1.87c-.175-.029-.378-.066-.593-.108-.439-3.361-2.392-9.555-6.184-13.348a1,1,0,1,1,1.414-1.414c3.456,3.456,5.486,8.59,6.358,12.376A1.006,1.006,0,0,1,31.412,45.047Z"></path><path d="M58,36a44.242,44.242,0,0,0-.68-5.84.176.176,0,0,0-.32.09c.022,2.862-.012,8.588,0,11.45a.177.177,0,0,0,.33.08A15.454,15.454,0,0,0,58,36Z"></path></g></g></svg></svg> <defs><filter id="colors9756519827"><feColorMatrix type="matrix" values="0 0 0 0 0.19921875  0 0 0 0 0.19921875  0 0 0 0 0.19921875  0 0 0 1 0" class="icon-fecolormatrix"></feColorMatrix></filter> <filter id="colorsf9761611736"><feColorMatrix type="matrix" values="0 0 0 0 0.99609375  0 0 0 0 0.99609375  0 0 0 0 0.99609375  0 0 0 1 0" class="icon-fecolormatrix"></feColorMatrix></filter> <filter id="colorsb2770145269"><feColorMatrix type="matrix" values="0 0 0 0 0  0 0 0 0 0  0 0 0 0 0  0 0 0 1 0" class="icon-fecolormatrix"></feColorMatrix></filter></defs></g></g> <g data-d="text" transform="translate(48,102.87429809570312)"><g data-gra="path-name" fill-rule="" class="tp-name iconsvg-namesvg"><g transform="scale(1)"><g><path d="" transform="translate(0, 0)"></path></g> <!----> <!----> <!----> <!----> <!----> <!----> <!----></g></g> <!----></g></g></g><defs><filter id="2862664c-6dbb-4f81-90cb-92a26262112f">
          <feColorMatrix type="matrix" values="0 0 0 0 0  0 0 0 0 0  0 0 0 0 0  0 0 0 1 0"></feColorMatrix>
          </filter><filter id="a0b5aa15-1495-4b78-917e-3882a858efe9">
          <feColorMatrix type="matrix" values="0 0 0 0 0.99609375  0 0 0 0 0.99609375  0 0 0 0 0.99609375  0 0 0 1 0"></feColorMatrix>
          </filter></defs><mask id="9adb927c-aa20-43cc-b827-67f04174386b"><g data-v-0dd9719b="" fill="#7f79f7" class="j-b-g-c iconbgsvg"><g data-d="container" transform="translate(0,0)"><g><rect fill="#7f79f7" fill-opacity="0" stroke-width="2" x="0" y="0" width="175" height="175" class="image-rect" stroke="#000"></rect> <svg filter="url(#a0b5aa15-1495-4b78-917e-3882a858efe9)" x="0" y="0" width="175" height="175" filtersec="colorsf7173164964" class="image-svg-container primary" style="overflow: visible;"><svg xmlns="http://www.w3.org/2000/svg" viewBox="0 0 60 60" style="overflow: visible;"><g transform="scale(1, 1) skewX(0)"><title>96 - Rounded (Solid)</title><path d="M49.001 0H10.999C4.934 0 0 4.934 0 10.999v38.002C0 55.066 4.934 60 10.999 60h38.002C55.065 60 60 55.066 60 49.001V10.999C60 4.934 55.065 0 49.001 0" fill="#000" fill-rule="evenodd"></path></g></svg></svg> <defs><filter id="colors1293043148"><feColorMatrix type="matrix" values="0 0 0 0 0.421875  0 0 0 0 0.38671875  0 0 0 0 0.99609375  0 0 0 1 0" class="icon-fecolormatrix"></feColorMatrix></filter> <filter id="colorsf7173164964"><feColorMatrix type="matrix" values="0 0 0 0 0.99609375  0 0 0 0 0.99609375  0 0 0 0 0.99609375  0 0 0 1 0" class="icon-fecolormatrix"></feColorMatrix></filter> <filter id="colorsb4298161386"><feColorMatrix type="matrix" values="0 0 0 0 0  0 0 0 0 0  0 0 0 0 0  0 0 0 1 0" class="icon-fecolormatrix"></feColorMatrix></filter></defs></g></g> <g data-d="icon-text" hollow-target="textRect" transform="translate(39.5,39.56285095214844)" filter="url(#2862664c-6dbb-4f81-90cb-92a26262112f)"><g data-d="icon" class="iconsvg-imagesvg" transform="translate(0,0)"><g><!----> <svg filter="url(#colors9756519827)" x="0" y="0" width="96.00000000000003" height="95.87440453006566" filtersec="colorsf9761611736" class="image-svg-svg primary" style="overflow: visible;"><svg xmlns="http://www.w3.org/2000/svg" viewBox="1.9213333129882812 2 60.07866668701172 60" x="0px" y="0px" style="overflow: visible;"><g><g data-name="Glyph"><path d="M5,2H3A1,1,0,0,0,2,3S1.823,44.124,2,57.83c.07,5.439,7.874,5.522,8,.17.1-4.272,0-17.091,0-17.091a1,1,0,0,1,.8-.981A5.074,5.074,0,0,0,15,35V13C15,6.63,10.79,2,5,2Z"></path><path d="M37.214,10.548A25.337,25.337,0,0,0,32,10a25.666,25.666,0,0,0-14.564,4.487,1.012,1.012,0,0,0-.436.835v6.421a1,1,0,0,0,1.694.71A18.8,18.8,0,0,1,32,17a18.613,18.613,0,0,1,4.758.614A.993.993,0,0,0,38,16.649V11.531A1,1,0,0,0,37.214,10.548Z"></path><path d="M12.659,41.443l-.072.03a.977.977,0,0,0-.587.913v9.456a2,2,0,0,0,.486,1.318,25.889,25.889,0,0,0,32.016,5.6,1,1,0,0,0,.516-.885c-.006-1.2-.011-3.955-.015-5.91a.994.994,0,0,0-1.584-.8A18.76,18.76,0,0,1,32,55,18.957,18.957,0,0,1,14.013,42.014,1,1,0,0,0,12.659,41.443Z"></path><path d="M62,18V5a3,3,0,0,0-6,0v8a1,1,0,0,1-2,0V5a3,3,0,0,0-6,0v8a1,1,0,0,1-2,0V5a3,3,0,0,0-6,0V18a8.013,8.013,0,0,0,7,7.938V58a4,4,0,0,0,8,0V25.938A8.013,8.013,0,0,0,62,18Z"></path><path d="M36.112,48.417A13,13,0,0,0,43.6,30.16a2.108,2.108,0,0,0-3.38-.59,6.156,6.156,0,0,1-3.888,1.685,1,1,0,0,0-.71,1.436,12.665,12.665,0,0,1,.984,3.5.5.5,0,0,0,.768.332.971.971,0,0,1,1.394.133,1,1,0,0,1-.139,1.408c-.59.484-1.111.961-1.593,1.44a.992.992,0,0,0-.283.63A20.9,20.9,0,0,1,34.9,47.062,1,1,0,0,0,36.112,48.417Z"></path><path d="M33.9,33.726C32.313,30,26.862,27.569,22.76,25.35a3.206,3.206,0,0,0-4.5,2.01c-1.157,4.411-1.646,10.049.106,14.1,2.7,5.388,8.516,6.933,11.835,7.411a1.981,1.981,0,0,0,1.984-.94C33.57,45.636,36.614,40.076,33.9,33.726Zm-2.49,11.321a17.787,17.787,0,0,1-.936,1.87c-.175-.029-.378-.066-.593-.108-.439-3.361-2.392-9.555-6.184-13.348a1,1,0,1,1,1.414-1.414c3.456,3.456,5.486,8.59,6.358,12.376A1.006,1.006,0,0,1,31.412,45.047Z"></path><path d="M58,36a44.242,44.242,0,0,0-.68-5.84.176.176,0,0,0-.32.09c.022,2.862-.012,8.588,0,11.45a.177.177,0,0,0,.33.08A15.454,15.454,0,0,0,58,36Z"></path></g></g></svg></svg> <defs><filter id="colors9756519827"><feColorMatrix type="matrix" values="0 0 0 0 0.19921875  0 0 0 0 0.19921875  0 0 0 0 0.19921875  0 0 0 1 0" class="icon-fecolormatrix"></feColorMatrix></filter> <filter id="colorsf9761611736"><feColorMatrix type="matrix" values="0 0 0 0 0.99609375  0 0 0 0 0.99609375  0 0 0 0 0.99609375  0 0 0 1 0" class="icon-fecolormatrix"></feColorMatrix></filter> <filter id="colorsb2770145269"><feColorMatrix type="matrix" values="0 0 0 0 0  0 0 0 0 0  0 0 0 0 0  0 0 0 1 0" class="icon-fecolormatrix"></feColorMatrix></filter></defs></g></g> <g data-d="text" transform="translate(48,102.87429809570312)"><g data-gra="path-name" fill-rule="" class="tp-name iconsvg-namesvg"><g transform="scale(1)"><g><path d="" transform="translate(0, 0)"></path></g> <!----> <!----> <!----> <!----> <!----> <!----> <!----></g></g> <!----></g></g></g></mask><defs v-gra="od"></defs></svg>